<?xml version="1.0" encoding="utf-8"?>
<svg version="1.1" width="57px" height="59px" viewBox="0 0 57 59" preserveAspectRatio="xMinYMid" xmlns="http://www.w3.org/2000/svg">
  <defs>
    <radialGradient cx="318.66668" cy="166.28027" r="25.90053" gradientUnits="userSpaceOnUse" id="color-2">
      <stop offset="0" stop-color="#ff3131"/>
      <stop offset="1" stop-color="#f71818"/>
    </radialGradient>
  </defs>
  <g transform="matrix(1, 0, 0, 1, -291.464935, -150.407867)">
    <g data-paper-data="{&quot;isPaintingLayer&quot;:true}" fill-rule="nonzero" stroke-linecap="butt" stroke-linejoin="miter" stroke-miterlimit="10" stroke-dasharray="" stroke-dashoffset="0" style="mix-blend-mode: normal">
      <path d="M311.78606,200.16847c-1.24862,-1.69443 -2.51756,-5.15738 -2.51756,-5.15738l9.06746,-6.6976c0,0 -6.82522,0.49027 -10.27957,0.56465c-3.51093,0.0756 -10.61906,-0.11464 -10.61906,-0.11464c0,0 -2.44605,-6.48424 -2.44605,-8.68931c0,-2.92712 1.56423,-9.02826 1.56423,-9.02826c0,0 7.53392,-0.30675 11.14325,-0.28923c3.41071,0.01655 9.95059,0.39158 9.95059,0.39158l-9.23007,-7.71415c0,0 3.62203,-4.50566 5.63846,-6.13231c1.84794,-1.49072 5.99881,-3.25541 5.99881,-3.25541c0,0 24.97037,16.46184 24.95217,27.05201c-0.01912,11.12583 -27.75492,24.74905 -27.75492,24.74905c0,0 -4.07119,-3.78383 -5.46774,-5.679z" fill="url(#color-2)" stroke="#ffffff" stroke-width="2"/>
      <path d="M311.16979,201.68564c-1.3423,-1.82156 -2.70645,-5.54432 -2.70645,-5.54432l9.74777,-7.20011c0,0 -7.3373,0.52705 -11.05083,0.60702c-3.77435,0.08127 -11.41578,-0.12325 -11.41578,-0.12325c0,0 -2.62957,-6.97074 -2.62957,-9.34125c0,-3.14674 1.6816,-9.70563 1.6816,-9.70563c0,0 8.09918,-0.32976 11.9793,-0.31094c3.6666,0.01779 10.69716,0.42097 10.69716,0.42097l-9.92258,-8.29293c0,0 3.89378,-4.84371 6.0615,-6.5924c1.98659,-1.60257 6.44889,-3.49965 6.44889,-3.49965c0,0 26.84383,17.69693 26.82427,29.08166c-0.02055,11.96058 -29.83731,26.60592 -29.83731,26.60592c0,0 -4.37664,-4.06772 -5.87797,-6.10509z" fill="none" stroke="#671414" stroke-width="3"/>
    </g>
  </g>
</svg>