<svg viewBox="0 0 80 64" width="80" height="64" xmlns="http://www.w3.org/2000/svg">
  <defs></defs>
  <path style="fill: rgb(207, 99, 207); stroke: rgb(201, 79, 201); paint-order: stroke; stroke-width: 4px;" d="M 34 2 L 62 2 C 66.418 2 70 5.582 70 10 L 70 20.784 C 69.334 20.784 68.668 20.981 68.002 21.374 L 62.003 24.916 C 60.67 25.703 60.004 26.884 60.004 28.458 L 60.004 35.542 C 60.004 37.117 60.67 38.297 62.003 39.084 L 68.002 42.626 C 68.668 43.019 69.334 43.216 70 43.216 L 70 54 C 70 58.418 66.418 62 62 62 L 34 62 C 20.745 62 10 51.255 10 38 L 10 26 C 10 12.745 20.745 2 34 2 Z"></path>
  <g transform="matrix(0, -1, 1, 0, -0.000003, 4.691896)" style="transform-origin: 40px 27.3081px;">
    <rect style="stroke-width: 0.8px; fill: rgb(255, 255, 255);" x="35" y="20" width="10" height="24" rx="3" ry="3"></rect>
    <rect style="stroke-width: 0.8px; fill: rgb(255, 255, 255); transform-box: fill-box; transform-origin: 50% 50%;" x="27.422" y="8.152" width="10" height="20" rx="3" ry="3" transform="matrix(0.707107, 0.707107, -0.707107, 0.707107, 1.971393, 3.070812)"></rect>
    <rect style="stroke-width: 0.8px; fill: rgb(255, 255, 255); transform-origin: 32.422px 18.152px;" x="27.422" y="8.152" width="10" height="20" rx="3" ry="3" transform="matrix(-0.707107, 0.707107, -0.707107, -0.707107, 13.184604, 3.070812)"></rect>
    <circle style="fill: rgb(255, 255, 255);" transform="matrix(0.115031, 0, 0, 0.110056, -7.383588, -16.742992)" cx="412.756" cy="291.226" r="42.632"></circle>
  </g>
</svg>