<svg viewBox="0 0 80 64" width="80" height="64" xmlns="http://www.w3.org/2000/svg">
  <defs></defs>
  <path style="paint-order: stroke; stroke-width: 4px; fill: rgb(227, 125, 125); stroke: rgb(187, 97, 97);" d="M 18 2 L 46 2 C 59.255 2 70 12.745 70 26 L 70 38 C 70 51.255 59.255 62 46 62 L 18 62 C 13.582 62 10 58.418 10 54 L 10 40.973 C 9.466 40.973 8.932 40.816 8.398 40.501 L 3.6 37.667 C 2.533 37.038 2 36.093 2 34.834 L 2 29.167 C 2 27.908 2.533 26.963 3.6 26.333 L 8.398 23.5 C 8.932 23.185 9.466 23.027 10 23.027 L 10 10 C 10 5.582 13.582 2 18 2 Z"></path>
  <g transform="matrix(0, 1, -1, 0, -0.000003, 4.691902)" style="transform-origin: 40px 27.3081px;">
    <rect style="stroke-width: 0.8px; fill: rgb(255, 255, 255);" x="35" y="20" width="10" height="24" rx="3" ry="3"></rect>
    <rect style="stroke-width: 0.8px; fill: rgb(255, 255, 255); transform-box: fill-box; transform-origin: 50% 50%;" x="27.422" y="8.152" width="10" height="20" rx="3" ry="3" transform="matrix(0.707107, 0.707107, -0.707107, 0.707107, 1.971393, 3.070812)"></rect>
    <rect style="stroke-width: 0.8px; fill: rgb(255, 255, 255); transform-origin: 32.422px 18.152px;" x="27.422" y="8.152" width="10" height="20" rx="3" ry="3" transform="matrix(-0.707107, 0.707107, -0.707107, -0.707107, 13.184604, 3.070812)"></rect>
    <circle style="fill: rgb(255, 255, 255);" transform="matrix(0.115031, 0, 0, 0.110056, -7.383588, -16.742992)" cx="412.756" cy="291.226" r="42.632"></circle>
  </g>
</svg>