<svg version="1.1" xmlns="http://www.w3.org/2000/svg" xmlns:xlink="http://www.w3.org/1999/xlink" width="56.44923" height="54.01745" viewBox="0,0,56.44923,54.01745"><g transform="translate(-291.77733,-152.87635)"><g data-paper-data="{&quot;isPaintingLayer&quot;:true}" fill="none" fill-rule="nonzero" stroke="#ffffff" stroke-width="4" stroke-linecap="butt" stroke-linejoin="miter" stroke-miterlimit="10" stroke-dasharray="" stroke-dashoffset="0" style="mix-blend-mode: normal"><path d="M321.08241,204.89379c-10.58736,0.0182 -27.04483,-24.95217 -27.04483,-24.95217c0,0 1.76422,-4.15087 3.25455,-5.99881c1.62622,-2.01643 6.13068,-5.63846 6.13068,-5.63846l7.7121,9.23007c0,0 -0.37493,-6.53988 -0.39148,-9.95059c-0.01752,-3.60933 0.28915,-11.14325 0.28915,-11.14325c0,0 6.09951,-1.56423 9.02586,-1.56423c2.20448,0 8.687,2.44605 8.687,2.44605c0,0 0.19019,7.10813 0.11461,10.61906c-0.07436,3.45435 -0.5645,10.27957 -0.5645,10.27957l6.69582,-9.06746c0,0 3.46203,1.26894 5.15601,2.51756c1.89466,1.39655 5.6775,5.46774 5.6775,5.46774c0,0 -13.61961,27.7358 -24.74249,27.75492z" data-paper-data="{&quot;index&quot;:null}"/></g></g></svg>