<svg viewBox="0,0,59.18428,56.77015" height="56.77015" width="59.18428" xmlns:xlink="http://www.w3.org/1999/xlink" xmlns="http://www.w3.org/2000/svg" version="1.1"><defs><radialGradient id="color-1" gradientUnits="userSpaceOnUse" r="25.90054" cy="164.5091" cx="239.23186"><stop stop-color="#87a3ad" offset="0"></stop><stop stop-color="#79929b" offset="1"></stop></radialGradient></defs><g transform="translate(-210.46093,-151.61495)"><g style="mix-blend-mode: normal" stroke-dashoffset="0" stroke-dasharray="" stroke-miterlimit="10" stroke-linejoin="miter" stroke-linecap="butt" fill-rule="nonzero" data-paper-data="{&quot;isPaintingLayer&quot;:true}"><path stroke-width="2" stroke="#ffffff" fill="url(#color-1)" data-paper-data="{&quot;index&quot;:null}" d="M241.15148,205.00874c-10.59017,0.0182 -27.05201,-24.95217 -27.05201,-24.95217c0,0 1.76469,-4.15087 3.25541,-5.99881c1.62665,-2.01643 6.13231,-5.63846 6.13231,-5.63846l7.71415,9.23007c0,0 -0.37503,-6.53988 -0.39158,-9.95059c-0.01752,-3.60933 0.28923,-11.14325 0.28923,-11.14325c0,0 6.10114,-1.56423 9.02826,-1.56423c2.20507,0 8.68931,2.44605 8.68931,2.44605c0,0 0.19024,7.10813 0.11464,10.61906c-0.07438,3.45435 -0.56465,10.27957 -0.56465,10.27957l6.6976,-9.06746c0,0 3.46295,1.26894 5.15738,2.51756c1.89517,1.39655 5.67901,5.46774 5.67901,5.46774c0,0 -13.62323,27.7358 -24.74906,27.75492z"></path><path stroke-width="3" stroke="#000000" fill="none" data-paper-data="{&quot;index&quot;:null}" d="M241.23787,206.88509c-11.38473,0.01956 -29.08166,-26.82427 -29.08166,-26.82427c0,0 1.89708,-4.4623 3.49965,-6.44889c1.74869,-2.16772 6.5924,-6.0615 6.5924,-6.0615l8.29293,9.92258c0,0 -0.40318,-7.03056 -0.42097,-10.69716c-0.01882,-3.88012 0.31094,-11.9793 0.31094,-11.9793c0,0 6.55889,-1.6816 9.70563,-1.6816c2.37051,0 9.34125,2.62957 9.34125,2.62957c0,0 0.20452,7.64143 0.12325,11.41578c-0.07997,3.71353 -0.60702,11.05083 -0.60702,11.05083l7.20011,-9.74777c0,0 3.72276,1.36415 5.54432,2.70645c2.03737,1.50133 6.1051,5.87797 6.1051,5.87797c0,0 -14.64535,29.81676 -26.60593,29.83731z"></path></g></g></svg>