<svg version="1.1" xmlns="http://www.w3.org/2000/svg" xmlns:xlink="http://www.w3.org/1999/xlink" width="668.014" height="393.31615" viewBox="0,0,668.014,393.31615"><g transform="translate(11.26674,15.07949)"><g data-paper-data="{&quot;isPaintingLayer&quot;:true}" fill-rule="nonzero" stroke="#ffffff" stroke-linecap="butt" stroke-linejoin="miter" stroke-miterlimit="10" stroke-dasharray="" stroke-dashoffset="0" style="mix-blend-mode: normal"><path d="M-8.76674,-11.42657h100.3869v387.1021h-100.3869z" fill-opacity="0.5098" fill="#252525" stroke-width="5"/><path d="M181.18573,375.67553h-89.56554v-387.10208h89.56554z" fill-opacity="0.5098" fill="#252525" stroke-width="5"/><path d="M460.39341,262.90734v-81.32875h193.85386v81.32875z" fill-opacity="0.5098" fill="#252525" stroke-width="5"/><path d="M654.24727,100.24984v81.32875h-193.85385v-81.32875z" fill-opacity="0.5098" fill="#252525" stroke-width="5"/><path d="M48.83408,214.63734c-5.41359,-5.41359 -19.80478,-19.70233 -28.07853,-27.91359c-3.63006,-3.60265 -3.92596,-8.19198 -0.6867,-11.43124c7.6556,-7.6556 21.35859,-21.35859 26.93276,-26.93277c4.6204,-4.6204 10.96731,-3.82443 10.96731,6.06192c0,17.98938 0,45.06245 0,54.71381c0,6.80385 -5.04799,9.58873 -9.13485,5.50188z" fill="#9b9b9b" stroke-width="5.5"/><path d="M460.39341,375.73667v-112.82932h193.85386v112.82932z" fill-opacity="0.5098" fill="#469c54" stroke-width="5"/><path d="M460.39341,100.24984v-112.82932h193.85386v112.82932z" fill-opacity="0.5098" fill="#9c4646" stroke-width="5"/><path d="M132.31639,147.54629c5.41359,5.41359 19.80478,19.70233 28.07853,27.91359c3.63006,3.60265 3.92596,8.19198 0.6867,11.43124c-7.6556,7.6556 -21.35859,21.35859 -26.93276,26.93277c-4.6204,4.6204 -10.96731,3.82443 -10.96731,-6.06192c0,-17.98938 0,-45.06245 0,-54.71381c0,-6.80385 5.04799,-9.58873 9.13485,-5.50188z" fill="#9b9b9b" stroke-width="5.5"/><path d="M554.56211,210.55024c-5.41359,5.41359 -19.70233,19.80478 -27.91359,28.07853c-3.60265,3.63006 -8.19198,3.92596 -11.43124,0.6867c-7.6556,-7.6556 -21.35859,-21.35859 -26.93277,-26.93276c-4.6204,-4.6204 -3.82443,-10.96731 6.06192,-10.96731c17.98938,0 45.06245,0 54.71381,0c6.80385,0 9.58873,5.04799 5.50188,9.13485z" fill="#9b9b9b" stroke-width="5.5"/><path d="M487.47107,151.08748c5.41359,-5.41359 19.70233,-19.80478 27.91359,-28.07853c3.60265,-3.63006 8.19198,-3.92596 11.43124,-0.6867c7.6556,7.6556 21.35859,21.35859 26.93277,26.93276c4.6204,4.6204 3.82443,10.96731 -6.06192,10.96731c-17.98938,0 -45.06245,0 -54.71381,0c-6.80385,0 -9.58873,-5.04799 -5.50188,-9.13485z" fill="#9b9b9b" stroke-width="5.5"/></g></g></svg>