<svg version="1.1" xmlns="http://www.w3.org/2000/svg" xmlns:xlink="http://www.w3.org/1999/xlink" width="470.92191" height="28.09221" viewBox="0,0,470.92191,28.09221"><g transform="translate(-84.47284,-165.95392)"><g data-paper-data="{&quot;isPaintingLayer&quot;:true}" fill="#ffffff" fill-rule="nonzero" stroke="none" stroke-width="0" stroke-linecap="butt" stroke-linejoin="miter" stroke-miterlimit="10" stroke-dasharray="" stroke-dashoffset="0" style="mix-blend-mode: normal"><path d="M84.47285,194.04614l9.76716,-28.09221h12.4496l-9.76716,28.09221z"/><path d="M109.85186,194.04614l9.76716,-28.09221h12.4496l-9.76716,28.09221z"/><path d="M134.78103,194.04614l9.76716,-28.09221h12.4496l-9.76716,28.09221z"/><path d="M160.16004,194.04614l9.76716,-28.09221h12.4496l-9.76716,28.09221z"/><path d="M182.91657,194.04614l9.76716,-28.09221h12.4496l-9.76716,28.09221z"/><path d="M208.29558,194.04614l9.76716,-28.09221h12.4496l-9.76716,28.09221z"/><path d="M233.22475,194.04614l9.76716,-28.09221h12.4496l-9.76716,28.09221z"/><path d="M258.60375,194.04614l9.76716,-28.09221h12.4496l-9.76716,28.09221z"/><path d="M283.69437,194.04614l9.76716,-28.09221h12.4496l-9.76716,28.09221z"/><path d="M309.07338,194.04614l9.76716,-28.09221h12.4496l-9.76716,28.09221z"/><path d="M334.00255,194.04614l9.76716,-28.09221h12.4496l-9.76716,28.09221z"/><path d="M359.38156,194.04614l9.76716,-28.09221h12.4496l-9.76716,28.09221z"/><path d="M382.13809,194.04614l9.76716,-28.09221h12.4496l-9.76716,28.09221z"/><path d="M407.5171,194.04614l9.76716,-28.09221h12.4496l-9.76716,28.09221z"/><path d="M432.44627,194.04614l9.76716,-28.09221h12.4496l-9.76716,28.09221z"/><path d="M457.82528,194.04614l9.76716,-28.09221h12.4496l-9.76716,28.09221z"/><path d="M482.86981,194.04614l9.76716,-28.09221h12.4496l-9.76716,28.09221z"/><path d="M508.24883,194.04614l9.76716,-28.09221h12.4496l-9.76716,28.09221z"/><path d="M533.178,194.04614l9.76716,-28.09221h12.4496l-9.76716,28.09221z"/></g></g></svg>