<svg version="1.1" xmlns="http://www.w3.org/2000/svg" xmlns:xlink="http://www.w3.org/1999/xlink" width="59.18427" height="60.49693" viewBox="0,0,59.18427,60.49693"><defs><linearGradient x1="320.06248" y1="179.79605" x2="320.06248" y2="212.11185" gradientUnits="userSpaceOnUse" id="color-1"><stop offset="0" stop-color="#065c02"/><stop offset="1" stop-color="#065c02" stop-opacity="0"/></linearGradient><radialGradient cx="321.00895" cy="169.55694" r="25.90053" gradientUnits="userSpaceOnUse" id="color-2"><stop offset="0" stop-color="#12fa05"/><stop offset="1" stop-color="#59e305"/></radialGradient></defs><g transform="translate(-290.40786,-151.61492)"><g data-paper-data="{&quot;isPaintingLayer&quot;:true}" fill-rule="nonzero" stroke-linecap="butt" stroke-linejoin="miter" stroke-miterlimit="10" stroke-dasharray="" stroke-dashoffset="0" style="mix-blend-mode: normal"><path d="M290.79099,212.11185v-32.31581l58.54298,3.6311v28.68471z" fill="url(#color-1)" stroke="none" stroke-width="0"/><path d="M340.16847,188.21395c-1.69443,1.24862 -5.15738,2.51756 -5.15738,2.51756l-6.6976,-9.06746c0,0 0.49027,6.82522 0.56465,10.27957c0.0756,3.51093 -0.11464,10.61906 -0.11464,10.61906c0,0 -6.48424,2.44605 -8.68931,2.44605c-2.92712,0 -9.02826,-1.56423 -9.02826,-1.56423c0,0 -0.30675,-7.53392 -0.28923,-11.14325c0.01655,-3.41071 0.39158,-9.95059 0.39158,-9.95059l-7.71415,9.23007c0,0 -4.50566,-3.62203 -6.13231,-5.63846c-1.49072,-1.84794 -3.25541,-5.99881 -3.25541,-5.99881c0,0 16.46184,-24.97037 27.05201,-24.95217c11.12583,0.01912 24.74905,27.75492 24.74905,27.75492c0,0 -3.78383,4.07119 -5.679,5.46774z" fill="url(#color-2)" stroke="#ffffff" stroke-width="2"/><path d="M341.68564,188.83022c-1.82156,1.3423 -5.54432,2.70645 -5.54432,2.70645l-7.20011,-9.74777c0,0 0.52705,7.3373 0.60702,11.05083c0.08127,3.77435 -0.12325,11.41578 -0.12325,11.41578c0,0 -6.97074,2.62957 -9.34125,2.62957c-3.14674,0 -9.70563,-1.6816 -9.70563,-1.6816c0,0 -0.32976,-8.09918 -0.31094,-11.9793c0.01779,-3.6666 0.42097,-10.69716 0.42097,-10.69716l-8.29293,9.92258c0,0 -4.84371,-3.89378 -6.5924,-6.0615c-1.60257,-1.98659 -3.49965,-6.44889 -3.49965,-6.44889c0,0 17.69693,-26.84383 29.08166,-26.82427c11.96058,0.02055 26.60592,29.83731 26.60592,29.83731c0,0 -4.06772,4.37664 -6.10509,5.87797z" fill="none" stroke="#065c02" stroke-width="3"/></g></g></svg>