<svg version="1.1" xmlns="http://www.w3.org/2000/svg" xmlns:xlink="http://www.w3.org/1999/xlink" width="59.18428" height="60.49692" viewBox="0,0,59.18428,60.49692"><defs><linearGradient x1="320.06248" y1="179.79605" x2="320.06248" y2="212.11185" gradientUnits="userSpaceOnUse" id="color-1"><stop offset="0" stop-color="#006a6a"/><stop offset="1" stop-color="#006a6a" stop-opacity="0"/></linearGradient><radialGradient cx="319.59294" cy="168.84895" r="25.90054" gradientUnits="userSpaceOnUse" id="color-2"><stop offset="0" stop-color="#00ffff"/><stop offset="1" stop-color="#00e4e4"/></radialGradient></defs><g transform="translate(-290.40787,-151.61493)"><g data-paper-data="{&quot;isPaintingLayer&quot;:true}" fill-rule="nonzero" stroke-linecap="butt" stroke-linejoin="miter" stroke-miterlimit="10" stroke-dasharray="" stroke-dashoffset="0" style="mix-blend-mode: normal"><path d="M290.79099,212.11185v-32.31581l57.98503,-2.84113l0.55795,35.15694z" fill="url(#color-1)" stroke="none" stroke-width="0"/><path d="M321.09842,205.00872c-10.59017,0.0182 -27.05201,-24.95217 -27.05201,-24.95217c0,0 1.76469,-4.15087 3.25541,-5.99881c1.62665,-2.01643 6.13231,-5.63846 6.13231,-5.63846l7.71415,9.23007c0,0 -0.37503,-6.53988 -0.39158,-9.95059c-0.01752,-3.60933 0.28923,-11.14325 0.28923,-11.14325c0,0 6.10114,-1.56423 9.02826,-1.56423c2.20507,0 8.68931,2.44605 8.68931,2.44605c0,0 0.19024,7.10813 0.11464,10.61906c-0.07438,3.45435 -0.56465,10.27957 -0.56465,10.27957l6.6976,-9.06746c0,0 3.46295,1.26894 5.15738,2.51756c1.89517,1.39655 5.67901,5.46774 5.67901,5.46774c0,0 -13.62323,27.7358 -24.74906,27.75492z" data-paper-data="{&quot;index&quot;:null}" fill="url(#color-2)" stroke="#ffffff" stroke-width="2"/><path d="M321.18481,206.88507c-11.38473,0.01956 -29.08166,-26.82427 -29.08166,-26.82427c0,0 1.89708,-4.4623 3.49965,-6.44889c1.74869,-2.16772 6.5924,-6.0615 6.5924,-6.0615l8.29293,9.92258c0,0 -0.40318,-7.03056 -0.42097,-10.69716c-0.01882,-3.88012 0.31094,-11.9793 0.31094,-11.9793c0,0 6.55889,-1.6816 9.70563,-1.6816c2.37051,0 9.34125,2.62957 9.34125,2.62957c0,0 0.20452,7.64143 0.12325,11.41578c-0.07997,3.71353 -0.60702,11.05083 -0.60702,11.05083l7.20011,-9.74777c0,0 3.72276,1.36415 5.54432,2.70645c2.03737,1.50133 6.1051,5.87797 6.1051,5.87797c0,0 -14.64535,29.81676 -26.60593,29.83731z" data-paper-data="{&quot;index&quot;:null}" fill="none" stroke="#006a6a" stroke-width="3"/></g></g></svg>